<svg viewBox="0 0 612.9 77.3" xmlns="http://www.w3.org/2000/svg" xmlns:xlink="http://www.w3.org/1999/xlink"><style>.st22{clip-path:url(#k);fill:#3bb09d}</style><defs><path id="an" d="M0 0h32v22H0z"/></defs><clipPath id="ac"><use xlink:href="#an"/></clipPath><g clip-path="url(#ac)"><defs><path id="r" d="M0 0h32v22H0z"/></defs><clipPath id="g"><use xlink:href="#r"/></clipPath><path d="M26 10l6-4v16l-6-4v-8zm-2 0v8c0 2.2-1.8 4-4 4H4c-2.2 0-4-1.8-4-4v-8c0-2.2 1.8-4 4-4h10c0-1.1.9-2 2-2V2H5c-.6 0-1-.4-1-1s.4-1 1-1h12c.6 0 1 .4 1 1v3c1.1 0 2 .9 2 2 2.2 0 4 1.8 4 4m-12 0H4v8h8v-8zm8 1c0-.6-.4-1-1-1h-4c-.6 0-1 .4-1 1s.4 1 1 1h4c.6 0 1-.4 1-1" clip-path="url(#g)" fill="#63d1bb"/></g><defs><path id="e" d="M47.1 0h32v37.3h-32z"/></defs><clipPath id="d"><use xlink:href="#e"/></clipPath><g clip-path="url(#d)"><defs><path id="c" d="M47.1 0h32v37.3h-32z"/></defs><clipPath id="b"><use xlink:href="#c"/></clipPath></g><defs><path id="a" d="M94.1 0h32.7v32.5H94.1z"/></defs><clipPath id="ax"><use xlink:href="#a"/></clipPath><g clip-path="url(#ax)"><defs><path id="aw" d="M94.1 0h32.7v32.5H94.1z"/></defs><clipPath id="av"><use xlink:href="#aw"/></clipPath><path d="M97 32.5h12.5V18.6H97v13.9zm28.2-23.6h-7.3c.5-.3 1-.5 1.4-.8 1.6-1.1 2.4-2.6 2.4-4 0-1.2-.6-2.2-1.4-2.9s-1.9-1.1-3-1.1c-1.2 0-2.4.4-3.3 1.1-1.5 1-2.6 2.5-3.4 4.1 0 .1-.1.2-.1.2-.3-.6-.6-1.2-1-1.8-.7-1-1.5-1.9-2.5-2.5S104.9.1 103.7.1s-2.3.5-3.2 1.3c-.9.7-1.5 1.8-1.5 3 0 .7.2 1.5.6 2.2.6.9 1.4 1.6 2.6 2.2h-6.6c-.9 0-1.6.7-1.6 1.6v5.9h15.4V8.9h1.9v7.5h15.4v-5.9c.1-.9-.6-1.6-1.5-1.6m-22.4-2.4c-.6-.4-1-.8-1.2-1.1-.2-.4-.3-.7-.3-1 0-.5.2-1 .7-1.5.4-.4 1-.7 1.6-.7.7 0 1.4.2 2 .7 1 .7 2 1.9 2.6 3.2.3.7.6 1.4.8 2.1-3-.3-5-.9-6.2-1.7m10.6-1.6c.6-.8 1.2-1.5 1.9-1.9.7-.5 1.4-.7 2-.7s1.1.2 1.5.5.6.7.6 1.2-.3 1.3-1.5 2.1c-1.1.8-3.1 1.7-6.1 2.3.3-1.2.8-2.5 1.6-3.5m-2 27.6h12.5V18.6h-12.5v13.9z" clip-path="url(#av)" fill="#63d1bb"/></g><defs><path id="au" d="M141.8 0h33.1v27.9h-33.1z"/></defs><clipPath id="at"><use xlink:href="#au"/></clipPath><g clip-path="url(#at)"><defs><path id="as" d="M141.8 0h33v27.9h-33z"/></defs><clipPath id="ar"><use xlink:href="#as"/></clipPath><path d="M174.8 8.7c0-4.8-3.9-8.7-8.7-8.7-3.4 0-6.3 2-7.8 4.8-1.5-2.8-4.4-4.8-7.8-4.8-4.8 0-8.7 3.9-8.7 8.7 0 9.1 14.7 19.1 16.5 19.1s16.5-9.9 16.5-19.1" clip-path="url(#ar)" fill="#63d1bb"/></g><defs><path id="aq" d="M189.9 0h45.7v45.7h-45.7z"/></defs><clipPath id="ap"><use xlink:href="#aq"/></clipPath><g clip-path="url(#ap)"><defs><path id="ao" d="M189.9 0h45.7v45.7h-45.7z"/></defs><clipPath id="am"><use xlink:href="#ao"/></clipPath><path d="M195.8 19.7c-.4 2.1-.4 4.2 0 6.3l4.1-3.2-4.1-3.1zM220 7.3c-4.8-2.2-10.4-2.1-15.3.4l7.5 5.6 7.8-6zm9.5 11.5l-4.8 3.7 4.9 3.7c.5-2.4.4-4.9-.1-7.4m-24.7 19.3c4.8 2.5 10.7 2.6 15.7.1l-8.1-6.1-7.6 6zm-1.3-18l-6.2-4.7c-.3.7-.6 1.4-.8 2.1l5.3 4 1.7-1.4zm10.6 10.7l8.3 6.2c.3-.2.6-.4.8-.6.3-.2.6-.5.9-.8l-8.3-6.2-1.7 1.4zM207 17.4l-7.4-5.5c-.5.6-.9 1.1-1.3 1.7l6.9 5.2 1.8-1.4zM217.6 28l8.1 6.1c.5-.5.9-1.1 1.3-1.7l-7.6-5.7-1.8 1.3zm-7.1-13.4l-7.7-5.8c-.2.1-.4.3-.6.4-.4.3-.8.6-1.1 1l7.7 5.7 1.7-1.3zm10.6 10.7l7 5.2c.3-.7.6-1.3.9-2l-6.1-4.6-1.8 1.4zm.9-16.9l-25.6 19.9c.2.7.5 1.4.8 2.1l26.5-20.7c-.5-.5-1.1-.9-1.7-1.3m4.3 3.9c-.3-.4-.6-.8-.9-1.1l-27 21c.3.4.5.8.8 1.2.1.2.3.4.4.5l27.1-21.1c-.1-.1-.3-.3-.4-.5m1.5 2.4l-26.7 20.8c.5.5 1.1 1 1.7 1.4l26-20.2c-.3-.7-.6-1.4-1-2" clip-path="url(#am)" fill="#6cc7b6"/></g><defs><path id="al" d="M381 .3h46.6v27.3H381z"/></defs><clipPath id="ak"><use xlink:href="#al"/></clipPath><g clip-path="url(#ak)"><defs><path id="aj" d="M381 .3h46.6v27.3H381z"/></defs><clipPath id="ai"><use xlink:href="#aj"/></clipPath><path d="M423.7.3h-38.8C382.7.3 381 2 381 4.2v19.5c0 2.2 1.7 3.9 3.9 3.9h38.8c2.2 0 3.9-1.7 3.9-3.9V4.2c0-2.2-1.8-3.9-3.9-3.9M384 3h40.2v22.2H384V3z" clip-path="url(#ai)" fill="#63d1bb"/><defs><path id="ah" d="M381 .3h46.6v27.3H381z"/></defs><clipPath id="ag"><use xlink:href="#ah"/></clipPath><path d="M387.9 21.3h32.4V6.9h-32.4v14.4zm16.4-12.5c2.9 0 5.3 2.4 5.3 5.3s-2.4 5.3-5.3 5.3-5.3-2.4-5.3-5.3 2.4-5.3 5.3-5.3" clip-path="url(#ag)" fill="#63d1bb"/></g><defs><path id="af" d="M442.6.3h54.2v23.2h-54.2z"/></defs><clipPath id="ae"><use xlink:href="#af"/></clipPath><g clip-path="url(#ae)"><defs><path id="ad" d="M442.6.3h54.2v23.2h-54.2z"/></defs><clipPath id="ab"><use xlink:href="#ad"/></clipPath><path d="M483 6c-3.6-1-7.8-1.7-12.4-1.7-2.9 0-5.5.2-7.7.6L456.1.2h-13.5l5.8 6.2h8.4C452.2 8 450 9.9 450 9.9v3.8s2.3 1.9 6.9 3.5h-8.6l-5.8 6.2H456l6.8-4.7c2.3.4 4.8.6 7.7.6 4.5 0 8.7-.7 12.4-1.7-1.2-1.8-1.9-3.7-1.9-5.9 0-2 .8-4 2-5.7m3.4 1c-1.3 1.6-2 3.3-2 4.8 0 1.6.7 3.2 2 4.8 6.4-2.2 10.4-4.8 10.4-4.8s-4-2.6-10.4-4.8" clip-path="url(#ab)" fill="#63d0bb"/></g><defs><path id="aa" d="M511.9.3h101v77h-101z"/></defs><clipPath id="z"><use xlink:href="#aa"/></clipPath><g clip-path="url(#z)"><defs><path id="y" d="M511.9.3h101v77h-101z"/></defs><clipPath id="x"><use xlink:href="#y"/></clipPath><path d="M609.1 18.4s-.9-7-3.8-10.1c-3.6-4-7.7-4.1-9.6-4.3-13.4-1-33.4-1-33.4-1h-.1s-20 0-33.4 1c-1.9.2-5.9.3-9.6 4.3-2.8 3.1-3.8 10.1-3.8 10.1s-.9 8.2-.9 16.4v7.7c0 8.2.9 16.4.9 16.4s.9 7 3.8 10.1c3.6 4 8.4 3.9 10.5 4.4 7.6.8 32.5 1 32.5 1s20.1 0 33.4-1.1c1.9-.2 5.9-.3 9.6-4.3 2.8-3.1 3.8-10.1 3.8-10.1s.9-8.2.9-16.4v-7.7c.2-8.1-.8-16.4-.8-16.4" clip-path="url(#x)" fill="#63d1bb"/><defs><path id="w" d="M511.9.3h101v77h-101z"/></defs><clipPath id="v"><use xlink:href="#w"/></clipPath><path d="M609.1 18.4s-.9-7-3.8-10.1c-3.6-4-7.7-4.1-9.6-4.3-13.4-1-33.4-1-33.4-1h-.1s-20 0-33.4 1c-1.9.2-5.9.3-9.6 4.3-2.8 3.1-3.8 10.1-3.8 10.1s-.9 8.2-.9 16.4v7.7c0 8.2.9 16.4.9 16.4s.9 7 3.8 10.1c3.6 4 8.4 3.9 10.5 4.4 7.6.8 32.5 1 32.5 1s20.1 0 33.4-1.1c1.9-.2 5.9-.3 9.6-4.3 2.8-3.1 3.8-10.1 3.8-10.1s.9-8.2.9-16.4v-7.7c.2-8.1-.8-16.4-.8-16.4z" clip-path="url(#v)" fill="none" stroke="#fff" stroke-width="5.513" stroke-miterlimit="10"/></g><defs><path id="u" d="M511.9.3h101v77h-101z"/></defs><clipPath id="t"><use xlink:href="#u"/></clipPath><path d="M550.4 20.9v35.7l29.9-17.8-29.9-17.9z" clip-path="url(#t)" fill="#fff"/><defs><path id="s" d="M44.3 0h32v37.3h-32z"/></defs><clipPath id="q"><use xlink:href="#s"/></clipPath><g clip-path="url(#q)"><defs><path id="p" d="M44.3 0h32v37.3h-32z"/></defs><clipPath id="o"><use xlink:href="#p"/></clipPath><path d="M60.3 37.3c8.8 0 16-7.2 16-16-8.9 0-16 7.2-16 16M48.9 16.4c0 2.5 2 4.4 4.4 4.4.9 0 1.8-.3 2.5-.8v.3c0 2.5 2 4.4 4.4 4.4s4.4-2 4.4-4.4V20a4.376 4.376 0 006.9-3.6c0-1.8-1-3.3-2.5-4 1.5-.7 2.5-2.2 2.5-4 0-2.5-2-4.4-4.4-4.4-.9 0-1.8.3-2.5.8v-.3c0-2.5-2-4.4-4.4-4.4s-4.4 2-4.4 4.4v.3c-.6-.5-1.5-.8-2.4-.8C50.9 4 49 6 49 8.4c0 1.8 1 3.3 2.5 4-1.5.7-2.6 2.3-2.6 4M60.3 8c2.5 0 4.4 2 4.4 4.4s-2 4.4-4.4 4.4-4.4-2-4.4-4.4S57.8 8 60.3 8m-16 13.3c0 8.8 7.2 16 16 16 0-8.8-7.2-16-16-16" clip-path="url(#o)" fill="#63d1bb"/></g><defs><path id="n" d="M249.3.4h40.2v62.4h-40.2z"/></defs><clipPath id="m"><use xlink:href="#n"/></clipPath><g clip-path="url(#m)"><defs><path id="l" d="M249.3.4h40.2v62.4h-40.2z"/></defs><clipPath id="k"><use xlink:href="#l"/></clipPath><path class="st22" d="M264.5 38.4c-.3 1-.2 2.2 0 3.6.5 2.6 1.7 6 2.4 9.7h5.1c.7-3.6 1.9-7 2.5-9.7.3-1.4.3-2.7 0-3.6s-.9-1.6-2-2.3h-6c-1.2.6-1.8 1.4-2 2.3M276.3 58.4h-13.8c-1.3 0-2.3 1-2.3 2.2v2.2h18.4v-2.2c0-1.3-1-2.2-2.3-2.2M283.4 2.6h-11.7c0-1.2-1-2.2-2.3-2.2s-2.3 1-2.3 2.2h-11.7l-6.1 25.5c.8-.5 1.6-1 2.6-1 1.4 0 2.2.8 2.9 1.4s1.2.8 1.4.8c.3 0 .8-.3 1.5-.8s1.6-1.4 2.9-1.4 2.2.8 2.9 1.4c.7.5 1.2.8 1.5.8.1 0 .3-.1.6-.2.2-.1.5-.4.9-.6.5-.4 1.1-1 2-1.2.3-.1.6-.1.9-.1 1.3 0 2.2.8 2.9 1.4.7.5 1.2.8 1.5.8s.8-.3 1.4-.8c.7-.6 1.6-1.4 2.9-1.4 1.4 0 2.2.8 2.9 1.4.3.3.6.5.9.6.2.1.4.2.6.2.3 0 .8-.3 1.4-.9.7-.6 1.6-1.4 2.9-1.4 1 0 1.8.5 2.6 1l-6-25.5zM272.8 53.9h-6.9c-.7 0-1.1.5-1.1 1.1s.5 1.1 1.1 1.1h6.9c.7 0 1.1-.5 1.1-1.1.1-.6-.4-1.1-1.1-1.1zM269.4 29.4c-.1 0-.3.1-.6.2-.2.1-.4.3-.6.4v3.7h2.3V30c-.5-.3-.9-.6-1.1-.6"/></g><defs><path id="j" d="M310.6.4h60V60h-60z"/></defs><clipPath id="i"><use xlink:href="#j"/></clipPath><g clip-path="url(#i)"><defs><path id="h" d="M310.6.4h60V60h-60z"/></defs><clipPath id="f"><use xlink:href="#h"/></clipPath><path d="M310.6 44.1L338.1 60V36.7l-27.4-15.9v23.3zM362 12.8v2.5c0 1.8-3.5 3.3-7.7 3.3-4.3 0-7.7-1.5-7.7-3.3v-4.1c.3 1.7 3.6 3.1 7.7 3.1 4.3 0 7.7-1.5 7.7-3.3s-3.5-3.3-7.7-3.3h-1l-5-2.9V8c0 1.8-3.5 3.3-7.7 3.3-2.7 0-5-.6-6.4-1.5-.2-.2-.4-.4-.7-.6-.4-.4-.6-.8-.6-1.2V5L328 7.8h-1.1c-4.3 0-7.7 1.5-7.7 3.3s3.5 3.3 7.7 3.3c4.1 0 7.4-1.4 7.7-3.1v4.1c0 1.8-3.5 3.3-7.7 3.3-4.3 0-7.7-1.5-7.7-3.3V13l-6 3.5 27.5 16 27.4-15.9-6.1-3.8zM348.3 23c0 1.8-3.5 3.3-7.7 3.3-4.3 0-7.7-1.5-7.7-3.3v-4.1c.3 1.7 3.6 3.1 7.7 3.1s7.4-1.4 7.7-3.1V23zm-5.1 13.9V60l27.4-15.9V20.9l-27.4 16zM340.5 7c4.3 0 7.7-1.5 7.7-3.3S344.7.4 340.5.4c-4.3 0-7.7 1.5-7.7 3.3s3.5 3.3 7.7 3.3" clip-path="url(#f)" fill="#3bb09d"/></g></svg>