<svg xmlns="http://www.w3.org/2000/svg" viewBox="0 0 1149 34"><path fill="#FFF" d="M1120.3 0c-14.4 0-14.4 14-28.7 14-14.4 0-14.4-14-28.7-14-14.4 0-14.4 14-28.7 14-14.4 0-14.4-14-28.7-14C991 0 991 14 976.7 14 962.3 14 962.3 0 948 0c-14.4 0-14.4 14-28.7 14S904.8 0 890.5 0s-14.4 14-28.7 14S847.4 0 833 0s-14.4 14-28.7 14C790 14 790 0 775.6 0c-14.4 0-14.4 14-28.7 14-14.4 0-14.4-14-28.7-14-14.4 0-14.4 14-28.7 14-14.4 0-14.4-14-28.7-14-14.4 0-14.4 14-28.7 14-14.4 0-14.4-14-28.7-14C589 0 589 14 574.7 14 560.3 14 560.3 0 546 0s-14.4 14-28.7 14c-14.4 0-14.4-14-28.7-14-14.6 0-14.6 14-29 14S445.2 0 430.9 0c-14.4 0-14.4 14-28.7 14-14.4 0-14.4-14-28.7-14-14.4 0-14.4 14-28.7 14-14.4 0-14.4-14-28.8-14s-14.4 14-28.7 14c-14.4 0-14.4-14-28.7-14-14.4 0-14.4 14-28.7 14-14.4 0-14.4-14-28.7-14-14.4 0-14.4 14-28.7 14C158 14 158 0 143.7 0c-14.4 0-14.4 14-28.7 14-14.4 0-14.4-14-28.7-14-14.5 0-14.5 14-28.8 14C43.1 14 43.1 0 28.7 0S14.4 14 0 14v20h1149V14c-14.4 0-14.4-14-28.7-14z"/></svg>