<svg data-name="Layer 1" xmlns="http://www.w3.org/2000/svg" viewBox="0 0 154.38 195.33"><path d="M77.99.62l-.8-.08-76.69 8v140.57l76.69 45.63 76.69-45.63V8.54zm65.86 142.82l-66.66 39.63-66.66-39.67V85.79l66.37 39.5.12 7.16-45.54-27.1-.07 6.95 45.72 27.48.11 7.35-45.7-27.19-.06 6.95 45.71 27.48 46.15-27.62v-7h-.06v-22.7l20.57-12.28zm0-66.06l-18.24 10.75-8.42 5-40.2-23.97-.06 7 34.31 20.4-.3.18-.74.44-4.88 2.87-28.33-16.89-.06 6.95 22.36 13.29-5.28 3.53-.13.08-16.89-9.95-.06 6.95 11.08 6.53-11.29 6.78-66-39.26L76.86 38.3h0zm0-7l-67-39.51h0L10.57 70.34V17.62l66.62-7 66.66 7z" fill="#d22856" stroke="#231f20" stroke-miterlimit="10"/></svg>