<svg id="Layer_1" data-name="Layer 1" xmlns="http://www.w3.org/2000/svg" viewBox="0 0 298 345.1"><defs><style>.cls-3{fill:#cf2552}</style></defs><path d="M264.57 102.06l5.35-5.36c7.72-7.72 9.13-18.94 3.13-24.93s-17.22-4.6-24.93 3.12l-5.39 5.39A148.19 148.19 0 00168 48.3v-9.59h7.66c10.91 0 19.84-8.71 19.84-19.35S186.57 0 175.66 0h-53.32c-10.91 0-19.84 8.71-19.84 19.36s8.93 19.35 19.84 19.35H130v9.59a149 149 0 10134.57 53.76zM149 306.26A110.17 110.17 0 11259.17 196.1 110.17 110.17 0 01149 306.26z" fill="#dedede"/><path d="M149 69.6a126.5 126.5 0 10126.5 126.5A126.5 126.5 0 00149 69.6zm0 237.21a110.17 110.17 0 11110.17-110.16A110.17 110.17 0 01149 306.81z" fill="#d12852"/><path class="cls-3" d="M87.47 227v-11l10-9.07c17.07-15.32 25.38-24 25.52-33.16 0-6.33-3.73-11.38-12.77-11.38-6.72 0-12.58 3.37-16.69 6.42l-5.12-13c5.82-4.43 15-8.05 25.48-8.05 17.72 0 27.34 10.33 27.34 24.44 0 13.09-9.37 23.6-20.74 33.61l-7.22 6v.19h29.5v15zM186.36 227v-18.65h-34.57v-11.84L181.25 149h22.34v45.7h9.31v13.65h-9.31V227zm0-32.28v-17.27c0-4.68.25-9.51.52-14.53h-.43c-2.5 5.09-4.6 9.59-7.24 14.47l-10.4 17.09-.07.24z"/></svg>